<svg xmlns="http://www.w3.org/2000/svg" width="59.306" height="59.272" viewBox="0 0 59.306 59.272"><defs><style>.a{fill:#fff;}</style></defs><g transform="translate(0 -0.146)"><path class="a" d="M21.282,10.035c.757-.555.736-.513,6.061-3.525l.034-.019A15.082,15.082,0,0,0,0,15.228V58.837a.581.581,0,0,0,.581.581H6.392a.581.581,0,0,0,.581-.581V15.228a8.09,8.09,0,0,1,14.309-5.193Z"/><path class="a" d="M264.735,313.129a1.743,1.743,0,0,0,1.433-2.006l-.269-1.615a1.743,1.743,0,1,0-3.439.573l.269,1.615A1.743,1.743,0,0,0,264.735,313.129Z" transform="translate(-231.936 -272.12)"/><path class="a" d="M332.821,275.034a1.743,1.743,0,0,0,.667-2.373l-.754-1.343a1.743,1.743,0,1,0-3.04,1.706l.754,1.343A1.743,1.743,0,0,0,332.821,275.034Z" transform="translate(-291.18 -238.869)"/><path class="a" d="M400.809,236.762a1.743,1.743,0,0,0-.178-2.459l-1.238-1.071a1.743,1.743,0,0,0-2.281,2.637l1.238,1.071A1.743,1.743,0,0,0,400.809,236.762Z" transform="translate(-350.427 -205.622)"/><path class="a" d="M272.271,398.261a1.743,1.743,0,0,0-3.45.5l.244,1.674a1.743,1.743,0,0,0,3.45-.5Z" transform="translate(-237.562 -350.528)"/><path class="a" d="M338.922,360.39a1.743,1.743,0,0,0-3.233,1.307l.6,1.476a1.743,1.743,0,0,0,3.233-1.307Z" transform="translate(-296.563 -317.413)"/><path class="a" d="M405.469,322.538a1.743,1.743,0,1,0-2.8,2.079l.949,1.279a1.743,1.743,0,0,0,2.8-2.079Z" transform="translate(-355.568 -284.302)"/><path class="a" d="M473.245,285.849l-1.3-1.081a1.743,1.743,0,1,0-2.227,2.683l1.3,1.081a1.743,1.743,0,0,0,2.227-2.683Z" transform="translate(-414.57 -251.189)"/><path class="a" d="M173.29,87.873,192.7,76.894l-.554-.981a8.35,8.35,0,0,0-11.387-3.16c-5.24,2.963-5.323,2.965-6.052,3.562a8.356,8.356,0,0,0-1.972,10.576Z" transform="translate(-151.699 -63.209)"/><path class="a" d="M202.661,132.949l-.769-1.36a1.758,1.758,0,0,0-2.392-.665c-1.008.569-23.092,13.06-23.561,13.326a1.758,1.758,0,0,0-.664,2.392l.769,1.361a2.363,2.363,0,0,0,3.22.894l22.5-12.727A2.363,2.363,0,0,0,202.661,132.949Z" transform="translate(-154.705 -115.379)"/></g></svg>